<svg id="Layer_1" data-name="Layer 1" xmlns="http://www.w3.org/2000/svg" viewBox="0 0 587 115.86"><defs><style>.cls-1{fill:#f03e2f;}.cls-2{fill:#f5786e;}.cls-3{fill:#f89f97;}</style></defs><path class="cls-1" d="M843.81,890.14H820.59V777.81h23.22Z" transform="translate(-480 -776.2)"/><path class="cls-2" d="M545.8,808.19h23s-2.36-24.51-30.75-31c0,0-31-6.45-47.73,12.9,0,0-3.87,15.48,12.9,24.52,0,0-1.18-13.94,14.24-19.23C517.46,795.42,534.18,788.84,545.8,808.19Z" transform="translate(-480 -776.2)"/><path class="cls-1" d="M563.86,875.28s18.06-24.51-9-43.86c0,0-6.45-6.45-34.84-10.32,0,0-33-6.4-30.06-30.3,0,0-13.8,20-.9,36.75,0,0,5.85,11.66,40.34,17.44C529.37,845,562.57,848.19,563.86,875.28Z" transform="translate(-480 -776.2)"/><path class="cls-2" d="M480,858.51h24.77s3.61,15.48,23,15.48c0,0,21.49,1.71,23.23-21.93,0,0,15.26,10,13.43,22.43,0,0-9.56,16.27-36.66,17.56C527.73,892.05,489,893.34,480,858.51Z" transform="translate(-480 -776.2)"/><polygon class="cls-2" points="219.97 1.61 219.97 113.86 242.46 113.86 242.46 33.93 242.46 33.93 219.97 1.61"/><polygon class="cls-2" points="302.23 88.06 297.45 80.68 297.45 90.07 302.23 88.06"/><polygon class="cls-1" points="242.46 26.72 238.98 28.73 242.46 33.93 242.46 33.93 242.46 26.72"/><polygon class="cls-2" points="319.95 1.61 297.45 1.61 297.45 80.68 302.23 88.06 297.45 90.07 297.45 113.86 319.95 113.86 319.95 1.61"/><polygon class="cls-1" points="297.45 80.68 246.31 1.61 219.97 1.61 242.46 33.93 238.98 28.73 242.46 26.72 242.46 33.93 242.46 33.93 296 113.86 297.45 113.86 297.45 90.07 297.45 80.68"/><polygon points="242.46 33.93 242.46 33.93 242.46 33.93 242.46 33.93"/><polygon class="cls-3" points="475.36 21.88 415.42 53.23 415.42 28.86 465.98 5.5 475.36 21.88"/><polygon class="cls-2" points="415.75 52.22 437.83 40.61 437.83 114.07 415.75 114.07 415.75 52.22"/><polygon class="cls-1" points="377.89 1.41 464.09 1.41 475.7 21.68 377.89 21.68 377.89 1.41"/><polygon class="cls-2" points="506.05 1.61 482.31 1.61 522.97 72.02 534.65 51.13 506.05 1.61"/><rect class="cls-3" x="522.97" y="72.02" width="22.08" height="41.92"/><polygon class="cls-1" points="563.26 1.61 534.65 51.13 522.97 72.02 545.05 72.02 587 1.61 563.26 1.61"/><polygon class="cls-1" points="206.37 113.94 162.55 1.61 140.9 1.61 151.08 28.98 167.02 68.65 167.18 68.57 173.85 85.66 173.85 85.66 185.21 113.94 206.37 113.94"/><polygon class="cls-2" points="128.16 87.04 116.77 115.74 173.85 85.66 167.02 68.65 128.16 87.04"/><polygon class="cls-3" points="100.95 99.75 116.95 115.23 151.08 28.98 140.9 1.61 100.95 99.75"/><polygon class="cls-1" points="167.18 68.57 167.02 68.65 173.85 85.66 173.85 85.66 167.18 68.57"/></svg>